<svg version="1.1" xmlns="http://www.w3.org/2000/svg" xmlns:xlink="http://www.w3.org/1999/xlink" width="128px" height="128px" viewBox="0,0,256,256"><g fill="#ffffff" fill-rule="nonzero" stroke="none" stroke-width="1" stroke-linecap="butt" stroke-linejoin="miter" stroke-miterlimit="10" stroke-dasharray="" stroke-dashoffset="0" font-family="none" font-weight="none" font-size="none" text-anchor="none" style="mix-blend-mode: normal"><g transform="translate(0.00003,0) scale(2,2)"><path d="M123.14875,104.26274c-1.78623,-6.55 -5.06736,-10.1397 -11.6106,-12.15868c-5.96039,-1.99842 -24.34887,-8.45925 -29.66727,-10.5274c-3.60208,6.71757 -8.88669,13.23917 -17.87088,19.32987c-8.98423,-6.0907 -14.26894,-12.6123 -17.871,-19.32987c-5.3184,2.06815 -23.70688,8.529 -29.66727,10.5274c-6.54324,2.019 -9.82437,5.60865 -11.6106,12.15868c-2.02079,7.41045 -2.38222,15.31438 -2.38222,22.95848h123.06215c0,-7.6441 -0.36152,-15.54803 -2.38231,-22.95848zM109.63337,113.89666h-17.01059c-1.56579,0 -2.83512,-1.26932 -2.83512,-2.83512c0,-1.56579 1.26932,-2.83512 2.83512,-2.83512h17.01059c1.56579,0 2.83512,1.26932 2.83512,2.83512c0,1.56579 -1.26932,2.83512 -2.83512,2.83512z"></path><path d="M74.97889,44.17491c1.01058,-0.0009 1.82989,-0.81933 1.83187,-1.82991v-14.99748c-0.00236,-1.01005 -0.82183,-1.8276 -1.83187,-1.8276c-1.01005,0 -1.82952,0.81755 -1.83187,1.8276v6.76013h-2.97883c-0.20467,0 -0.231,0 -0.231,-0.231v-6.52913c0,-1.01059 -0.81925,-1.82984 -1.82984,-1.82984c-1.01059,0 -1.82984,0.81925 -1.82984,1.82984v6.52911c-0.03449,1.04207 0.36433,2.05185 1.10159,2.78911c0.73726,0.73726 1.74704,1.13608 2.78911,1.10159h2.9788v4.57767c0.00198,1.01058 0.8213,1.82902 1.83189,1.82991z"></path><path d="M51.49877,41.0481c-0.52411,0.52336 -0.68131,1.31091 -0.3983,1.99537c0.28301,0.68447 0.95049,1.13103 1.69115,1.13144h9.05c1.01117,0 1.83088,-0.81971 1.83088,-1.83088c0,-1.01117 -0.81971,-1.83088 -1.83088,-1.83088h-4.63042l4.69326,-4.69315c2.35696,-2.35696 2.35696,-6.17836 0,-8.53532c-2.35696,-2.35696 -6.17836,-2.35696 -8.53532,0l-0.93215,0.93414c-0.46352,0.46237 -0.64482,1.13708 -0.47547,1.76951c0.16935,0.63242 0.66356,1.12625 1.29611,1.29512c0.63255,0.16886 1.30713,-0.01295 1.76914,-0.47683l0.93215,-0.93215c0.94005,-0.8957 2.41769,-0.8957 3.35774,0c0.92407,0.92852 0.92407,2.42922 0,3.35774z"></path><path d="M34.76258,44.72607l1.30571,6.306c0.56545,2.72523 3.10875,4.57492 5.87562,4.27323c1.42444,6.38014 3.59076,12.59709 7.41879,17.89411c2.81918,3.85773 7.84913,5.89047 14.51119,5.89047h0.26711c6.66206,0 11.692,-2.03274 14.5111,-5.89047c1.61193,-2.2523 2.97039,-4.67559 4.05072,-7.22589h-4.89642c-0.78905,1.60022 -1.70709,3.13354 -2.745,4.58476c-2.463,3.36816 -7.28521,4.08033 -10.90558,4.08033h-0.28192c-3.62037,0 -8.45743,-0.69732 -10.90567,-4.05063c-2.99713,-4.13965 -5.11889,-9.30319 -6.69167,-16.24716l-0.8606,-3.85773l-3.932,0.40055c-0.49437,0.05972 -0.95213,-0.26908 -1.05341,-0.75664l-1.06835,-5.16354l5.0448,-1.03868l-0.4451,-4.03578c-0.32647,-3.01207 -0.56384,-5.96473 -0.69741,-8.769c-0.178,-4.15459 0.34124,-6.89951 1.70636,-8.90254c3.96161,-5.87571 12.61194,-7.58207 18.814,-7.30015h0.43026c6.20209,-0.29677 14.85243,1.42444 18.82888,7.30015c1.35027,2.003 1.86955,4.748 1.69151,8.90254c-0.11873,2.81908 -0.35609,5.68273 -0.69741,8.769l-0.44509,4.03578l5.05966,1.03865l-1.06835,5.16357c-0.10815,0.48965 -0.57047,0.81711 -1.06826,0.75664l-3.932,-0.40055l-0.8606,3.85773c-0.20766,0.94963 -0.43026,1.8547 -0.66762,2.73015h4.58476c0.16319,-0.59354 0.29677,-1.17223 0.43026,-1.76567c2.76451,0.2927 5.30244,-1.55308 5.87571,-4.2733l1.29086,-6.306c0.17803,-0.85401 0.00904,-1.74376 -0.46971,-2.47303c-0.47874,-0.72927 -1.22792,-1.23815 -2.08229,-1.41441l-2.21078,-0.46c0.32638,-3.01207 0.5786,-6.0389 0.71217,-9.06583c0.178,-4.02092 -0.14843,-8.16067 -2.46309,-11.58814c-4.80736,-7.13687 -14.526,-9.65918 -22.71632,-9.25863c-8.19028,-0.40055 -17.909,2.12176 -22.73117,9.25863c-2.31466,3.42748 -2.62619,7.56722 -2.44815,11.58814c0.13349,3.02692 0.37088,6.04886 0.71217,9.06583l-2.21078,0.46c-1.77838,0.37052 -2.92465,2.10652 -2.56689,3.88751z"></path><path d="M29.27284,33.33526c0.05737,1.22786 1.09925,2.17673 2.32711,2.11936c1.22786,-0.05737 2.17673,-1.09925 2.11936,-2.32711c-0.02916,-0.52851 -0.05328,-1.058 -0.07236,-1.58845c-0.17822,-3.94413 -0.02753,-9.76034 3.33266,-14.72455c6.10022,-9.04889 17.9326,-11.92222 26.94239,-11.55851l0.08549,0.0029l0.08551,-0.0029c9.02716,-0.36369 20.8436,2.50964 26.94382,11.55853c3.3428,4.957 3.50943,10.78187 3.3457,14.71731c-0.05941,1.21714 -0.13186,2.47921 -0.2188,3.75431l-0.084,1.21135l0.97516,0.72594c2.65858,1.98075 3.93344,5.31919 3.2718,8.56783l-1.28814,6.2683c-0.6281,3.10426 -2.6184,5.76172 -5.42064,7.23766h-21.73617c-1.07478,-2.84739 -4.03125,-4.51952 -7.02533,-3.97341c-2.99408,0.54611 -5.16983,3.15433 -5.17014,6.19781c-0.00031,3.04348 2.17492,5.65214 5.16889,6.19886c2.99397,0.54671 5.95078,-1.12482 7.02613,-3.97199h22.75517l0.45063,-0.21155c4.28717,-2.0107 7.36933,-5.93233 8.30992,-10.57324l1.28959,-6.27264c0.91773,-4.50256 -0.60535,-9.15551 -4.00788,-12.2439c0.058,-0.91576 0.10722,-1.82427 0.15069,-2.71539c0.19127,-4.57733 -0.02608,-11.36147 -4.10207,-17.40662c-7.10146,-10.53409 -20.49874,-13.8769 -30.71986,-13.52045c-10.2443,-0.3608 -23.6184,2.9878 -30.717,13.51755c-4.09768,6.0582 -4.29619,12.84233 -4.09047,17.39648c0.01933,0.53667 0.04361,1.07551 0.07284,1.61652z"></path></g></g></svg>