<svg version="1.1" xmlns="http://www.w3.org/2000/svg" xmlns:xlink="http://www.w3.org/1999/xlink" width="16" height="16" viewBox="0,0,256,256"><g fill="#fffbfb" fill-rule="nonzero" stroke="none" stroke-width="1" stroke-linecap="butt" stroke-linejoin="miter" stroke-miterlimit="10" stroke-dasharray="" stroke-dashoffset="0" font-family="none" font-weight="none" font-size="none" text-anchor="none" style="mix-blend-mode: normal"><g transform="scale(16,16)"><path d="M8,0c-4.41828,0 -8,3.58172 -8,8c0,4.41828 3.58172,8 8,8c4.41828,0 8,-3.58172 8,-8c0,-4.41828 -3.58172,-8 -8,-8zM4.882,1.731c0.01182,0.11021 0.06126,0.21298 0.14,0.291c0.11076,0.11061 0.16159,0.26772 0.13663,0.42225c-0.02496,0.15453 -0.12268,0.28764 -0.26263,0.35775l-0.291,0.146c-0.06953,0.03458 -0.13301,0.08017 -0.188,0.135l-0.48,0.48c-0.26768,0.26785 -0.66369,0.36153 -1.023,0.242l-0.02,-0.007c-0.14871,-0.0495 -0.307,-0.0632 -0.462,-0.04c0.65113,-0.85392 1.48924,-1.54732 2.45,-2.027zM1.882,11.405l0.86,-0.216c0.44533,-0.11107 0.75787,-0.51103 0.758,-0.97v-0.184c-0.00005,-0.33428 0.16693,-0.64648 0.445,-0.832l0.04,-0.026c0.24951,-0.16623 0.41128,-0.43564 0.44073,-0.734c0.02945,-0.29836 -0.07653,-0.5942 -0.28873,-0.806l-1.016,-1.016c-0.1565,-0.15326 -0.16654,-0.4019 -0.0229,-0.56728c0.14364,-0.16537 0.39124,-0.19024 0.5649,-0.05672l1.09,0.818c0.15141,0.11332 0.35381,0.1315 0.523,0.047c0.15499,-0.07767 0.33916,-0.0695 0.48667,0.02157c0.14751,0.09108 0.23732,0.25206 0.23733,0.42543v0.455c-0.00007,0.15411 0.04552,0.30478 0.131,0.433l0.795,1.192c0.04904,0.07384 0.08805,0.15388 0.116,0.238l0.73,2.19c0.13642,0.40815 0.51866,0.68325 0.949,0.683h0.058c0.43061,0.0001 0.81293,-0.27546 0.949,-0.684l0.73,-2.189c0.02795,-0.08412 0.06696,-0.16416 0.116,-0.238l0.791,-1.187c0.08429,-0.12631 0.22615,-0.20212 0.378,-0.202c0.16,0 0.306,0.084 0.392,0.218c0.557,0.875 1.63,2.282 2.365,2.282c0.01334,0.0001 0.02668,-0.00023 0.04,-0.001c-0.97231,2.5404 -3.32772,4.28795 -6.04091,4.48194c-2.71319,0.19398 -5.29326,-1.2007 -6.61709,-3.57694z"></path></g></g></svg>