<svg version="1.1" xmlns="http://www.w3.org/2000/svg" xmlns:xlink="http://www.w3.org/1999/xlink" width="16" height="16" viewBox="0,0,256,256"><g fill="#ffffff" fill-rule="nonzero" stroke="none" stroke-width="1" stroke-linecap="butt" stroke-linejoin="miter" stroke-miterlimit="10" stroke-dasharray="" stroke-dashoffset="0" font-family="none" font-weight="none" font-size="none" text-anchor="none" style="mix-blend-mode: normal"><g transform="translate(0,8) scale(16,16)"><path d="M0,1.5c0,-0.82843 0.67157,-1.5 1.5,-1.5h2c0.82843,0 1.5,0.67157 1.5,1.5v2c0,0.82843 -0.67157,1.5 -1.5,1.5h-2c-0.82843,0 -1.5,-0.67157 -1.5,-1.5zM1.5,1c-0.27614,0 -0.5,0.22386 -0.5,0.5v2c0,0.27614 0.22386,0.5 0.5,0.5h2c0.27614,0 0.5,-0.22386 0.5,-0.5v-2c0,-0.27614 -0.22386,-0.5 -0.5,-0.5zM0,8c0,-1.10457 0.89543,-2 2,-2h12c1.10457,0 2,0.89543 2,2v5c0,1.10457 -0.89543,2 -2,2h-12c-1.10457,0 -2,-0.89543 -2,-2zM1,11v2c0,0.55228 0.44772,1 1,1h12c0.55228,0 1,-0.44772 1,-1v-2zM15,10v-2c0,-0.55228 -0.44772,-1 -1,-1h-12c-0.55228,0 -1,0.44772 -1,1v2zM2,8.5c0,-0.27614 0.22386,-0.5 0.5,-0.5h9c0.27614,0 0.5,0.22386 0.5,0.5c0,0.27614 -0.22386,0.5 -0.5,0.5h-9c-0.27614,0 -0.5,-0.22386 -0.5,-0.5zM2,12.5c0,-0.27614 0.22386,-0.5 0.5,-0.5h6c0.27614,0 0.5,0.22386 0.5,0.5c0,0.27614 -0.22386,0.5 -0.5,0.5h-6c-0.27614,0 -0.5,-0.22386 -0.5,-0.5z"></path></g></g></svg>