<svg version="1.1" xmlns="http://www.w3.org/2000/svg" xmlns:xlink="http://www.w3.org/1999/xlink" width="16" height="16" viewBox="0,0,256,256"><g fill="#ffffff" fill-rule="nonzero" stroke="none" stroke-width="1" stroke-linecap="butt" stroke-linejoin="miter" stroke-miterlimit="10" stroke-dasharray="" stroke-dashoffset="0" font-family="none" font-weight="none" font-size="none" text-anchor="none" style="mix-blend-mode: normal"><g transform="translate(0,-8.00715) scale(16,16)"><path d="M7.646,15.854c0.0938,0.09404 0.22117,0.14689 0.354,0.14689c0.13283,0 0.2602,-0.05285 0.354,-0.14689l1.853,-1.854h3.793c1.10457,0 2,-0.89543 2,-2v-9c0,-1.10457 -0.89543,-2 -2,-2h-12c-1.10457,0 -2,0.89543 -2,2v9c0,1.10457 0.89543,2 2,2h3.793zM1,9v-3h14v3zM15,10v2c0,0.55228 -0.44772,1 -1,1h-3.793c-0.26519,0.00006 -0.51951,0.10545 -0.707,0.293l-1.5,1.5l-1.5,-1.5c-0.18749,-0.18755 -0.44181,-0.29294 -0.707,-0.293h-3.793c-0.55228,0 -1,-0.44772 -1,-1v-2zM15,5h-14v-2c0,-0.55228 0.44772,-1 1,-1h12c0.55228,0 1,0.44772 1,1zM2,11.5c0,0.27614 0.22386,0.5 0.5,0.5h8c0.27614,0 0.5,-0.22386 0.5,-0.5c0,-0.27614 -0.22386,-0.5 -0.5,-0.5h-8c-0.27614,0 -0.5,0.22386 -0.5,0.5zM2,7.5c0,0.27614 0.22386,0.5 0.5,0.5h11c0.27614,0 0.5,-0.22386 0.5,-0.5c0,-0.27614 -0.22386,-0.5 -0.5,-0.5h-11c-0.27614,0 -0.5,0.22386 -0.5,0.5zM2,3.5c0,0.27614 0.22386,0.5 0.5,0.5h6c0.27614,0 0.5,-0.22386 0.5,-0.5c0,-0.27614 -0.22386,-0.5 -0.5,-0.5h-6c-0.27614,0 -0.5,0.22386 -0.5,0.5z"></path></g></g></svg>