<svg version="1.1" xmlns="http://www.w3.org/2000/svg" xmlns:xlink="http://www.w3.org/1999/xlink" width="177.2437px" height="229.608px" viewBox="0,0,197.6125,256"><g fill="#ffffff" fill-rule="nonzero" stroke="none" stroke-width="1" stroke-linecap="butt" stroke-linejoin="miter" stroke-miterlimit="10" stroke-dasharray="" stroke-dashoffset="0" font-family="none" font-weight="none" font-size="none" text-anchor="none" style="mix-blend-mode: normal"><g transform="translate(-0.00213,0) scale(1.11494,1.11494)"><g><path d="M18.9409,0.5914c-12.0986,2.8164 -19.624,14.9102 -16.8057,27.0098c2.8184,12.0996 14.9092,19.625 27.0108,16.8066c12.0976,-2.8164 19.623,-14.9101 16.8066,-27.0097c-2.8184,-12.0996 -14.9121,-19.625 -27.0117,-16.8067z"></path><path d="M51.8159,66.1471c0,-2.3809 -0.1572,-3.8701 -0.1865,-4.1186c-0.4942,-4.3892 -4.4532,-7.5479 -8.8428,-7.0552c-4.3779,0.4927 -7.5293,4.4282 -7.0596,8.8032h-0.0019c0.0039,0.0308 0.0908,0.9082 0.0888,2.3706c0.0225,3.874 -0.6748,11.7241 -4.5986,18.8662c-4,7.126 -10.6045,13.9766 -25.0322,17.4512c-4.3028,1.0039 -6.9766,5.3056 -5.9717,9.6103c0.8603,3.6914 4.1494,6.1827 7.7851,6.1827c0.6016,0 1.2129,-0.0684 1.8252,-0.211c18.461,-4.2012 29.7647,-14.7207 35.4473,-25.3857c5.7608,-10.6509 6.5254,-21.0181 6.5469,-26.5137z"></path><path d="M135.1518,220.4381l37.1934,-15.6582c4.0722,-1.7148 5.9844,-6.4043 4.2695,-10.4765l-25.6074,-60.8301c-1.7149,-4.0723 -6.4043,-5.9844 -10.4766,-4.2696l-35.1777,14.8086l-10.6631,-25.3281c1.5293,-1.7529 2.2881,-4.1523 1.8623,-6.623c-4.3154,-25.1685 -16.9678,-41.8223 -28.4609,-51.793c-5.7559,-5.0093 -11.209,-8.4248 -15.3037,-10.6182c-5.3145,-3.8471 -11.4766,-4.8593 -16.376,-3.6386c-4.3682,1.0898 -7.4805,4.7441 -9.0967,9.3847c-3.6719,7.773 -7.5801,26.6099 -9.0615,40.2432c4.0547,-2.4024 6.7998,-5.1543 8.7998,-7.8525c-0.001,-4.5972 0.2402,-9.1963 0.7412,-13.7774c0.6104,3.0098 1.2666,6.2236 1.9043,9.583c3.8545,-7.311 4.1289,-15.1655 4.1143,-17.4326c0.0029,-1.3579 -0.0762,-2.1572 -0.0762,-2.1655c-0.584,-5.458 3.375,-10.396 8.8262,-11.0088c0.3789,-0.0415 0.7539,-0.062 1.1269,-0.062c5.0889,0 9.3565,3.8178 9.9277,8.8823c0.0332,0.2773 0.1993,1.8325 0.1993,4.3418c-0.042,9.835 -2.3877,19.3281 -6.7871,27.4653c-2.334,4.376 -6.6778,10.7041 -14.1719,16.2783c0.0693,3.6768 -0.0723,7.3116 -0.5127,10.8331c-10.1221,15.2705 -26.4815,46.7021 -30.1416,94.2382c-0.5303,6.8838 4.6211,12.8926 11.5049,13.4239c0.3261,0.0254 0.6504,0.038 0.9716,0.038c6.4668,0 11.9454,-4.9863 12.4512,-11.5429c1.3164,-17.1074 4.4483,-31.7373 8.2588,-43.9356c1.0537,4.4297 2.4561,8.961 4.2852,13.5274c5.3906,13.5088 14.625,27.2568 29.0488,39.1006c5.3301,4.3857 13.207,3.622 17.5947,-1.708c4.3867,-5.3321 3.6211,-13.209 -1.709,-17.5967c-11.1787,-9.2237 -17.7295,-19.1729 -21.7275,-29.0948c-3.9756,-9.9091 -5.293,-19.8769 -5.291,-28.6347c-0.001,-5.7178 0.5625,-10.8916 1.2646,-15.0879c4.1973,-2.4385 7.6465,-6.8565 9.1846,-14.7695c1.6318,-14.0215 1.6465,-24.4258 -0.2725,-35.2647c5.7051,7.7451 10.6748,17.9141 13.0166,31.3643c0.6719,3.8935 4.0537,6.6416 7.875,6.6416c0.1016,0 0.2051,-0.0088 0.3077,-0.0127l10.5478,25.0586l-3.2236,1.3574c-4.0742,1.7148 -5.9844,6.4062 -4.2696,10.4785l21.92,52.0713c-1.5254,2.0127 -2.4405,4.5127 -2.4405,7.2314c0,6.627 5.3731,12 12,12c5.6504,0 10.376,-3.9111 11.6504,-9.1699zM117.5014,217.608c0,-3.3144 2.6856,-6 6,-6c3.3125,0 6,2.6856 6,6c0,3.3125 -2.6875,6 -6,6c-3.3144,0 -6,-2.6875 -6,-6z"></path></g></g></g></svg>