<svg version="1.1" xmlns="http://www.w3.org/2000/svg" xmlns:xlink="http://www.w3.org/1999/xlink" width="244.3691px" height="237.1826px" viewBox="0,0,256,248.46251"><g fill="#ffffff" fill-rule="nonzero" stroke="none" stroke-width="1" stroke-linecap="butt" stroke-linejoin="miter" stroke-miterlimit="10" stroke-dasharray="" stroke-dashoffset="0" font-family="none" font-weight="none" font-size="none" text-anchor="none" style="mix-blend-mode: normal"><g transform="translate(0,-0.00447) scale(1.0476,1.0476)"><g><rect x="82.2021" y="152.1065" width="7.2647" height="40.667"></rect><path d="M67.1035,139.1319c-0.3975,-6.7657 -0.6006,-13.2901 -0.6055,-19.3916c0.0147,-21.1856 2.3555,-37.3819 7.1602,-49.5205c2.5371,-6.4629 5.6113,-11.1045 8.6865,-14.4434c-1.4902,-1.2246 -2.9893,-2.2012 -4.4404,-2.9258c-3.375,-1.7021 -6.3438,-2.1006 -8.1514,-2.1308c-0.1406,-0.0079 -0.2793,-0.0215 -0.4219,-0.0215h-38.6348c-0.1494,0 -0.2958,0.0136 -0.4433,0.0224c-1.8096,0.0313 -4.7725,0.4326 -8.1377,2.1299c-5.3789,2.668 -11.1777,8.501 -15.2363,18.8418c-4.1075,10.377 -6.8653,25.3857 -6.8789,48.0449c0.0019,5.8565 0.1894,12.2246 0.5976,19.1602c0.249,4.2519 3.7744,7.5312 7.9805,7.5312c0.1572,0 0.3154,-0.0048 0.4746,-0.0136c4.4102,-0.2608 7.7754,-4.045 7.5176,-8.4551c-0.3916,-6.6524 -0.5703,-12.708 -0.5684,-18.2227c-0.0361,-24.2246 3.4971,-37.83 6.9658,-44.9277v150.0098c0,6.83 5.5371,12.3632 12.3633,12.3632c6.8281,0 12.3652,-5.5332 12.3652,-12.3632v-90.2715h4.6348v90.2715c0,6.83 5.5371,12.3632 12.3633,12.3632c6.8281,0 12.3652,-5.5332 12.3652,-12.3632v-74.5704c-5.4062,-0.9228 -9.625,-5.4697 -9.956,-11.1171zM46.2119,58.8819h3.8008h3.7988l1.9004,7.5l-0.2891,0.456c-1.5654,1.3057 -3.4834,1.96 -5.4121,1.9619c-1.9277,-0.0019 -3.8428,-0.6552 -5.4072,-1.958l-0.292,-0.4599zM50.0127,123.3819l-9.5,-12l5.4716,-40.3213c1.2969,0.4863 2.6621,0.7402 4.0264,0.7392h0.002c0,0 0.0039,0 0.0058,0c1.3633,0 2.7256,-0.2539 4.0205,-0.7402l5.4737,40.3223z"></path><circle cx="50.0127" cy="22.5" r="22.5"></circle><path d="M235.8681,145.6504c2.5508,-1.2129 4.3828,-3.7363 4.5606,-6.7558c0.4013,-6.9356 0.5879,-13.3008 0.5908,-19.1582c-0.043,-30.1827 -4.8613,-46.8858 -11.4365,-56.9297c-3.2852,-4.9864 -7.127,-8.1836 -10.6787,-9.9561c-3.375,-1.7021 -6.3438,-2.1006 -8.1514,-2.1308c-0.1406,-0.0079 -0.2793,-0.0215 -0.4219,-0.0215h-38.6348c-0.1494,0 -0.2958,0.0136 -0.4433,0.0224c-1.8096,0.0313 -4.7725,0.4326 -8.1377,2.1299c-1.4688,0.7285 -2.9668,1.7022 -4.4541,2.9297c1.2627,1.3691 2.5342,2.9609 3.7617,4.8242c8.1035,12.3799 12.0576,31.7168 12.0977,59.126c-0.0049,6.0703 -0.2061,12.5928 -0.5987,19.3965c-0.2031,3.4638 -1.8916,6.6211 -4.5517,8.7187v0.2598h4.5h4.001v4.001v40.667v4.0009h-4.001h-9.9024v28.045c0,6.83 5.5371,12.3632 12.3633,12.3632c6.8281,0 12.3652,-5.5332 12.3652,-12.3632v-90.2715h4.6348v90.2715c0,6.83 5.5371,12.3632 12.3633,12.3632c6.8281,0 12.3652,-5.5332 12.3652,-12.3632v-149.9541c0.5918,1.2148 1.1885,2.6084 1.7774,4.2324c2.8203,7.8135 5.1894,20.6318 5.1797,40.6387c0.0029,5.5156 -0.1748,11.5732 -0.5635,18.2255c-0.2285,3.9161 2.4023,7.3321 6.082,8.2315v5.9131h-7.333v40.667h21.167v-40.667h-8.501zM187.2119,58.8819h3.8008h3.7988l1.9004,7.5l-0.2891,0.456c-1.5654,1.3057 -3.4834,1.96 -5.4121,1.9619c-1.9277,-0.0019 -3.8428,-0.6552 -5.4072,-1.958l-0.292,-0.4599zM191.0127,123.3819l-9.5,-12l5.4716,-40.3213c1.2969,0.4863 2.6621,0.7402 4.0264,0.7392h0.002c0,0 0.0039,0 0.0058,0c1.3633,0 2.7256,-0.2539 4.0205,-0.7402l5.4737,40.3223z"></path><circle cx="191.0127" cy="22.5" r="22.5"></circle><path d="M173.8691,192.7735v-40.667h-8.501v-6.4561c2.5508,-1.2129 4.3828,-3.7363 4.5606,-6.7558c0.4013,-6.9356 0.5879,-13.3008 0.5908,-19.1582c-0.043,-30.1827 -4.8613,-46.8858 -11.4365,-56.9297c-3.2852,-4.9864 -7.127,-8.1836 -10.6787,-9.9561c-3.375,-1.7021 -6.3438,-2.1006 -8.1514,-2.1308c-0.1406,-0.0079 -0.2793,-0.0215 -0.4219,-0.0215h-38.6348c-0.1494,0 -0.2958,0.0136 -0.4433,0.0224c-1.8096,0.0313 -4.7725,0.4326 -8.1377,2.1299c-5.3789,2.668 -11.1777,8.501 -15.2363,18.8418c-4.1075,10.377 -6.8653,25.3857 -6.8789,48.0449c0.0019,5.8565 0.1894,12.2246 0.5976,19.1602c0.249,4.2519 3.7744,7.5312 7.9805,7.5312c0.1572,0 0.3154,-0.0048 0.4746,-0.0136c4.4102,-0.2608 7.7754,-4.045 7.5176,-8.4551c-0.3916,-6.6524 -0.5703,-12.708 -0.5684,-18.2227c-0.0361,-24.2246 3.4971,-37.83 6.9658,-44.9277v150.0098c0,6.83 5.5371,12.3632 12.3633,12.3632c6.8281,0 12.3652,-5.5332 12.3652,-12.3632v-90.2715h4.6348v90.2715c0,6.83 5.5371,12.3632 12.3633,12.3632c6.8281,0 12.3652,-5.5332 12.3652,-12.3632v-149.9541c0.5918,1.2148 1.1885,2.6084 1.7774,4.2324c2.8203,7.8135 5.1894,20.6318 5.1797,40.6387c0.0029,5.5156 -0.1748,11.5732 -0.5635,18.2255c-0.2285,3.9161 2.4023,7.3321 6.082,8.2315v5.9131h-7.333v40.667zM116.7119,58.8819h3.8008h3.7988l1.9004,7.5l-0.2891,0.456c-1.5654,1.3057 -3.4834,1.96 -5.4121,1.9619c-1.9277,-0.0019 -3.8428,-0.6552 -5.4072,-1.958l-0.292,-0.4599zM120.5127,123.3819l-9.5,-12l5.4716,-40.3213c1.2969,0.4863 2.6621,0.7402 4.0264,0.7392h0.002c0,0 0.0039,0 0.0058,0c1.3633,0 2.7256,-0.2539 4.0205,-0.7402l5.4737,40.3223z"></path><circle cx="120.5127" cy="22.5" r="22.5"></circle></g></g></g></svg>